<svg width="500" height="384" viewBox="0 0 500 384" fill="none" xmlns="http://www.w3.org/2000/svg">
<path d="M381.771 0C367.971 0 362.049 9.56087 352.445 26.6809L303.928 136.847V0H250H196.072V136.847L147.555 26.6809C137.951 9.56088 132.029 0 118.229 0H0V106.724H137.205C169.492 106.724 172.125 116.004 180.067 134.321L182.112 138.933L190.636 158.156C194.22 166.238 196.072 174.981 196.072 183.822V383.515H250H303.928V183.822C303.928 174.981 305.78 166.238 309.364 158.156L317.888 138.933L319.933 134.321C327.875 116.004 330.508 106.724 362.795 106.724H500V0H381.771Z" fill="white"/>
</svg>
